# Blender v2.79 (sub 0) OBJ File: 'Oby.blend'
# www.blender.org
mtllib Oby.mtl
o Cube
v 1.482487 -1.482487 -1.482487
v 1.482487 -1.482487 1.482487
v -1.482487 -1.482487 1.482487
v -1.482487 -1.482487 -1.482488
v 1.482488 1.482487 -1.482486
v 1.482486 1.482487 1.482488
v -1.482488 1.482487 1.482487
v -1.482487 1.482487 -1.482487
v 1.000102 2.033488 -1.000101
v 1.000101 2.033488 1.000102
v -1.000102 2.033488 1.000101
v -1.000102 2.033488 -1.000102
v 0.066803 10.707387 -0.066803
v 0.066803 10.707387 0.066803
v -0.066803 10.707387 0.066803
v -0.066803 10.707387 -0.066803
vt 0.800000 0.000000
vt 1.000000 0.000000
vt 1.000000 0.242074
vt 0.800000 0.242074
vt 0.400000 0.758273
vt 0.200000 0.758273
vt 0.232539 0.711242
vt 0.367461 0.711242
vt 0.600000 0.000000
vt 0.600000 0.241727
vt 0.400000 0.241727
vt 0.400000 0.000000
vt 0.200000 0.000000
vt 0.200000 0.241727
vt 0.000000 0.241727
vt 0.000000 0.000000
vt 0.600000 1.000000
vt 0.600000 0.758273
vt 0.800000 0.758273
vt 0.800000 1.000000
vt 0.400000 1.000000
vt 0.200000 1.000000
vt 0.032539 0.288758
vt 0.167461 0.288758
vt 0.104507 1.000000
vt 0.095494 1.000000
vt 0.567461 0.288758
vt 0.432539 0.288758
vt 0.632539 0.711242
vt 0.767461 0.711242
vt 0.809012 0.242074
vt 0.809012 0.252982
vt 0.800000 0.252982
vt 0.800000 0.242074
vt 0.504506 1.000000
vt 0.495494 1.000000
vt 0.695494 0.000000
vt 0.704506 0.000000
vt 0.295494 0.000000
vt 0.304506 0.000000
vn 0.0000 -1.0000 0.0000
vn 0.0000 0.6587 -0.7524
vn 1.0000 0.0000 0.0000
vn -0.0000 -0.0000 1.0000
vn -1.0000 -0.0000 -0.0000
vn 0.0000 0.0000 -1.0000
vn -0.0000 0.1070 0.9943
vn -0.0000 0.6587 0.7524
vn 0.7524 0.6587 0.0000
vn -0.7524 0.6587 -0.0000
vn 0.0000 1.0000 0.0000
vn 0.9943 0.1070 0.0000
vn -0.9943 0.1070 -0.0000
vn 0.0000 0.1070 -0.9943
usemtl Material.002
s off
f 1/1/1 2/2/1 3/3/1 4/4/1
f 5/5/2 8/6/2 12/7/2 9/8/2
f 1/9/3 5/10/3 6/11/3 2/12/3
f 2/13/4 6/14/4 7/15/4 3/16/4
f 3/17/5 7/18/5 8/19/5 4/20/5
f 5/5/6 1/21/6 4/22/6 8/6/6
f 11/23/7 10/24/7 14/25/7 15/26/7
f 7/15/8 6/14/8 10/24/8 11/23/8
f 6/11/9 5/10/9 9/27/9 10/28/9
f 8/19/10 7/18/10 11/29/10 12/30/10
f 13/31/11 16/32/11 15/33/11 14/34/11
f 10/28/12 9/27/12 13/35/12 14/36/12
f 12/30/13 11/29/13 15/37/13 16/38/13
f 9/8/14 12/7/14 16/39/14 13/40/14
